<?xml version="1.0" encoding="UTF-8"?>
<svg version="1.1" xmlns="http://www.w3.org/2000/svg" width="225" height="225">
<path d="M0 0 C74.25 0 148.5 0 225 0 C225 74.25 225 148.5 225 225 C150.75 225 76.5 225 0 225 C0 150.75 0 76.5 0 0 Z " fill="#FEFEFE" transform="translate(0,0)"/>
<path d="M0 0 C25.08 0 50.16 0 76 0 C76 5.94 76 11.88 76 18 C58.51 18 41.02 18 23 18 C23 25.59 23 33.18 23 41 C38.51 41 54.02 41 70 41 C70 47.27 70 53.54 70 60 C54.49 60 38.98 60 23 60 C23 67.92 23 75.84 23 84 C41.15 84 59.3 84 78 84 C78 89.94 78 95.88 78 102 C52.26 102 26.52 102 0 102 C0 68.34 0 34.68 0 0 Z " fill="#47259D" transform="translate(65,63)"/>
<path d="M0 0 C4.08872057 0.82818975 6.8311641 3.00439423 9.140625 6.43359375 C10.19711021 10.79733703 9.63177259 14.27939691 7.890625 18.37109375 C5.5774973 21.09727997 3.47023749 22.18622398 -0.04296875 22.83984375 C-6.0063831 23.08788871 -6.0063831 23.08788871 -8.51953125 21.16015625 C-11.02580866 18.16431445 -12.73226235 15.55218507 -13.171875 11.68359375 C-12.77931128 7.60093106 -11.39038384 5.61543343 -8.859375 2.43359375 C-5.70935553 0.33358077 -3.76211666 -0.11843701 0 0 Z " fill="#E54D47" transform="translate(162.859375,143.56640625)"/>
</svg>
